<mxfile host="app.diagrams.net" modified="2024-03-08T02:24:19.750Z" agent="Mozilla/5.0 (Windows NT 10.0; Win64; x64) AppleWebKit/537.36 (KHTML, like Gecko) Chrome/122.0.0.0 Safari/537.36" version="24.0.2" etag="GfToDkH15OgtqVT-JEI1" type="github">
  <diagram name="PÃ¡gina-1" id="ML-CzzTQB83kCJj7RElY">
    <mxGraphModel>
      <root>
        <mxCell id="0" />
        <mxCell id="1" parent="0" />
      </root>
    </mxGraphModel>
  </diagram>
</mxfile>
